<svg width="36" height="36" viewBox="0 0 36 36" fill="none" xmlns="http://www.w3.org/2000/svg">
<path d="M18 0C13.2261 0 8.64773 1.89642 5.27208 5.27208C1.89642 8.64773 0 13.2261 0 18C0 22.7739 1.89642 27.3523 5.27208 30.7279C8.64773 34.1036 13.2261 36 18 36C22.7739 36 27.3523 34.1036 30.7279 30.7279C34.1036 27.3523 36 22.7739 36 18C36 13.2261 34.1036 8.64773 30.7279 5.27208C27.3523 1.89642 22.7739 0 18 0V0ZM2.22 19.36H7.24C7.32 21.18 7.574 22.988 8 24.76H3.68C2.87441 23.0618 2.37992 21.2328 2.22 19.36ZM19.36 8.56V2.38C21.2874 3.11245 22.8711 4.53925 23.8 6.38C24.21 7.074 24.572 7.796 24.88 8.54L19.36 8.56ZM25.8 11.26C26.264 13.026 26.54 14.836 26.62 16.66H19.36V11.26H25.8ZM16.64 2.38V8.56H11.12C11.4285 7.81539 11.7894 7.09358 12.2 6.4C13.1249 4.55171 14.7092 3.11732 16.64 2.38ZM16.64 11.26V16.66H9.4C9.48 14.836 9.756 13.026 10.22 11.26H16.64ZM7.24 16.64H2.22C2.37992 14.7672 2.87441 12.9382 3.68 11.24H8C7.57318 13.0113 7.31867 14.8197 7.24 16.64ZM9.4 19.36H16.64V24.76H10.22C9.75607 22.9941 9.48119 21.184 9.4 19.36ZM16.66 27.36V33.54C14.7326 32.8076 13.1489 31.3808 12.22 29.54C11.8094 28.8464 11.4485 28.1246 11.14 27.38L16.66 27.36ZM19.36 33.54V27.46H24.88C24.5715 28.2046 24.2106 28.9264 23.8 29.62C22.8711 31.4608 21.2874 32.8876 19.36 33.62V33.54ZM19.36 24.66V19.26H26.6C26.5188 21.084 26.2439 22.8941 25.78 24.66H19.36ZM28.78 19.26H33.8C33.6401 21.1328 33.1456 22.9618 32.34 24.66H28C28.42 22.92 28.674 21.146 28.76 19.36L28.78 19.26ZM28.78 16.56C28.6884 14.7726 28.4272 12.998 28 11.26H32.32C33.126 12.96 33.62 14.788 33.78 16.66L28.78 16.56ZM30.78 8.56H27.2C26.5522 6.7406 25.6134 5.03845 24.42 3.52C26.9088 4.63716 29.0706 6.3721 30.7 8.56H30.78ZM11.58 3.52C10.3866 5.03845 9.44776 6.7406 8.8 8.56H5.3C6.92944 6.3721 9.09124 4.63716 11.58 3.52ZM5.28 27.52H8.8C9.44776 29.3394 10.3866 31.0415 11.58 32.56C9.08435 31.426 6.92189 29.6699 5.3 27.46L5.28 27.52ZM24.4 32.56C25.5934 31.0415 26.5322 29.3394 27.18 27.52H30.7C29.0606 29.6786 26.8997 31.3853 24.42 32.48L24.4 32.56Z" fill="white"/>
</svg>
